<mxfile host="app.diagrams.net" modified="2021-03-23T02:02:24.229Z" agent="5.0 (Macintosh; Intel Mac OS X 11_2_2) AppleWebKit/537.36 (KHTML, like Gecko) Chrome/89.0.4389.90 Safari/537.36" etag="-NaSbYKyTZDd_evxZCul" version="14.5.0" type="gitlab">
  <diagram id="JgNja9hiJComwc5C3hM6" name="Page-1">
    <mxGraphModel dx="1120" dy="744" grid="1" gridSize="10" guides="1" tooltips="1" connect="1" arrows="1" fold="1" page="1" pageScale="1" pageWidth="850" pageHeight="1100" math="0" shadow="0">
      <root>
        <mxCell id="0" />
        <mxCell id="1" parent="0" />
        <mxCell id="G5MLiU9EDqKhmN2XC5zn-6" value="" style="rounded=1;whiteSpace=wrap;html=1;fillColor=#ffcccc;strokeColor=#36393d;gradientColor=#FF66B3;" parent="1" vertex="1">
          <mxGeometry x="90" y="350" width="200" height="280" as="geometry" />
        </mxCell>
        <mxCell id="G5MLiU9EDqKhmN2XC5zn-7" value="" style="rounded=1;whiteSpace=wrap;html=1;fillColor=#b0e3e6;strokeColor=#0e8088;gradientColor=#67AB9F;" parent="1" vertex="1">
          <mxGeometry x="365" y="350" width="245" height="310" as="geometry" />
        </mxCell>
        <mxCell id="G5MLiU9EDqKhmN2XC5zn-8" value="" style="rounded=1;whiteSpace=wrap;html=1;fillColor=#fff2cc;strokeColor=#d6b656;gradientColor=#ffd966;" parent="1" vertex="1">
          <mxGeometry x="300" y="680" width="280" height="290" as="geometry" />
        </mxCell>
        <mxCell id="G5MLiU9EDqKhmN2XC5zn-9" value="" style="rounded=1;whiteSpace=wrap;html=1;fillColor=#dae8fc;strokeColor=#6c8ebf;gradientColor=#007FFF;" parent="1" vertex="1">
          <mxGeometry x="60" y="650" width="200" height="270" as="geometry" />
        </mxCell>
        <mxCell id="G5MLiU9EDqKhmN2XC5zn-10" value="&lt;h1&gt;Cuisine&lt;/h1&gt;&lt;p&gt;Cuisine Table Attributes&lt;/p&gt;&lt;ul&gt;&lt;li&gt;id = Integer&lt;/li&gt;&lt;li&gt;name = String&lt;/li&gt;&lt;li&gt;capital = String&lt;/li&gt;&lt;li&gt;population = Integer&lt;/li&gt;&lt;li&gt;latitude = Float&lt;/li&gt;&lt;li&gt;longitude = Float&lt;/li&gt;&lt;li&gt;area = Integer&lt;/li&gt;&lt;li&gt;region = String&lt;/li&gt;&lt;li&gt;time_zones = String&lt;/li&gt;&lt;li&gt;translations = String&lt;/li&gt;&lt;li&gt;borders = String&lt;/li&gt;&lt;/ul&gt;&lt;p&gt;&lt;/p&gt;" style="text;html=1;strokeColor=none;fillColor=none;spacing=5;spacingTop=-20;whiteSpace=wrap;overflow=hidden;rounded=0;" parent="1" vertex="1">
          <mxGeometry x="100" y="360" width="180" height="250" as="geometry" />
        </mxCell>
        <mxCell id="G5MLiU9EDqKhmN2XC5zn-11" value="&lt;h1&gt;City&lt;/h1&gt;&lt;div&gt;City Table Attributes&lt;/div&gt;&lt;div&gt;&lt;ul&gt;&lt;li&gt;id = Integer&lt;/li&gt;&lt;li&gt;leisure_and_culture = Float&lt;/li&gt;&lt;li&gt;cost_of_living = Float&lt;/li&gt;&lt;li&gt;environmental_quality = Float&lt;/li&gt;&lt;li&gt;safety = Float&lt;/li&gt;&lt;li&gt;travel_connectivity = Float&lt;/li&gt;&lt;li&gt;tolerance = Float&lt;/li&gt;&lt;li&gt;population = Integer&lt;/li&gt;&lt;li&gt;summary = String&lt;/li&gt;&lt;li&gt;name = String&lt;/li&gt;&lt;li&gt;state = String&lt;/li&gt;&lt;li&gt;time_zone = String&lt;/li&gt;&lt;li&gt;latitude = Float&lt;/li&gt;&lt;li&gt;longitude = Float&lt;br&gt;&lt;/li&gt;&lt;/ul&gt;&lt;/div&gt;" style="text;html=1;strokeColor=none;fillColor=none;spacing=5;spacingTop=-20;whiteSpace=wrap;overflow=hidden;rounded=0;" parent="1" vertex="1">
          <mxGeometry x="370" y="360" width="220" height="260" as="geometry" />
        </mxCell>
        <mxCell id="G5MLiU9EDqKhmN2XC5zn-12" value="&lt;h1&gt;Restaurant&lt;/h1&gt;&lt;div&gt;Restaurant Table Attributes&lt;/div&gt;" style="text;html=1;strokeColor=none;fillColor=none;spacing=5;spacingTop=-20;whiteSpace=wrap;overflow=hidden;rounded=0;" parent="1" vertex="1">
          <mxGeometry x="310" y="696" width="260" height="245" as="geometry" />
        </mxCell>
        <mxCell id="G5MLiU9EDqKhmN2XC5zn-13" value="&lt;h1&gt;CountryData&lt;/h1&gt;&lt;div&gt;CountryData Attributes (within Cuisine Table)&lt;/div&gt;" style="text;html=1;strokeColor=none;fillColor=none;spacing=5;spacingTop=-20;whiteSpace=wrap;overflow=hidden;rounded=0;" parent="1" vertex="1">
          <mxGeometry x="80" y="660" width="160" height="170" as="geometry" />
        </mxCell>
      </root>
    </mxGraphModel>
  </diagram>
</mxfile>
